<?xml version="1.0" standalone="no"?>
<!DOCTYPE svg PUBLIC "-//W3C//DTD SVG 20010904//EN"
 "http://www.w3.org/TR/2001/REC-SVG-20010904/DTD/svg10.dtd">
<svg version="1.0" xmlns="http://www.w3.org/2000/svg"
 width="192.000000pt" height="192.000000pt" viewBox="0 0 192.000000 192.000000"
 preserveAspectRatio="xMidYMid meet">
<metadata>
Created by potrace 1.16, written by Peter Selinger 2001-2019
</metadata>
<g transform="translate(0.000000,192.000000) scale(0.100000,-0.100000)"
fill="#000000" stroke="none">
<path d="M258 1704 c-60 -32 -58 -11 -58 -744 0 -580 2 -675 15 -700 32 -62 8
-60 750 -60 611 0 678 2 701 16 55 37 54 17 54 744 0 736 2 713 -60 745 -43
22 -1361 22 -1402 -1z m803 -319 c178 -61 234 -301 100 -430 -28 -26 -32 -27
-61 -15 -57 24 -151 150 -111 150 4 0 20 11 35 25 51 47 24 100 -47 93 l-32
-3 -5 -160 -5 -160 -35 3 c-45 4 -111 43 -149 89 -34 42 -38 58 -16 67 9 3 29
-10 52 -35 40 -43 86 -73 97 -62 3 4 6 67 6 140 0 74 5 143 10 154 9 15 22 19
66 19 122 0 172 -79 104 -165 -33 -42 -30 -58 16 -94 37 -29 48 -27 78 19 98
149 -3 350 -176 350 -92 0 -159 -59 -197 -174 -26 -79 -56 -98 -86 -53 -38 59
56 204 156 240 57 20 144 21 200 2z m-387 -636 c55 -65 21 -133 -74 -148 -29
-5 -36 -11 -38 -34 -3 -23 -8 -27 -33 -27 l-29 0 0 120 0 120 74 0 c71 0 75
-2 100 -31z m128 -56 l3 -88 40 -3 c41 -4 55 -14 55 -44 0 -16 -10 -18 -80
-18 l-80 0 0 120 0 120 30 0 29 0 3 -87z m333 -29 c30 -65 55 -119 55 -120 0
-2 -15 -4 -34 -4 -21 0 -36 6 -40 15 -8 21 -102 21 -114 -1 -6 -10 -19 -14
-41 -12 l-32 3 57 118 c42 85 63 117 76 117 13 0 33 -31 73 -116z m157 80 c21
-36 22 -36 37 -17 9 12 21 28 26 38 7 12 20 16 47 13 l38 -3 -45 -75 c-34 -58
-45 -85 -45 -118 0 -43 0 -43 -32 -40 -32 3 -33 5 -39 53 -3 33 -18 70 -42
110 -20 33 -37 63 -37 68 0 4 16 7 35 7 30 0 39 -5 57 -36z"/>
</g>
</svg>
